PathFileType	4	(X/Y/Z)	35_2_27_p1_0-463.trc
DataRate	CameraRate	NumFrames	NumMarkers	Units	OrigDataRate	OrigDataStartFrame	OrigNumFrames
59.0	59.0	7	27	m	59.0	0	464
Frame#	Time	RHip			RKnee			RAnkle			RBigToe			RSmallToe			RHeel			LHip			LKnee			LAnkle			LBigToe			LSmallToe			LHeel			Neck			Head			Nose			RShoulder			RElbow			RWrist			RThumb			RIndex			RPinky			LShoulder			LElbow			LWrist			LThumb			LIndex			LPinky			
		X1	Y1	Z1	X2	Y2	Z2	X3	Y3	Z3	X4	Y4	Z4	X5	Y5	Z5	X6	Y6	Z6	X7	Y7	Z7	X8	Y8	Z8	X9	Y9	Z9	X10	Y10	Z10	X11	Y11	Z11	X12	Y12	Z12	X13	Y13	Z13	X14	Y14	Z14	X15	Y15	Z15	X16	Y16	Z16	X17	Y17	Z17	X18	Y18	Z18	X19	Y19	Z19	X20	Y20	Z20	X21	Y21	Z21	X22	Y22	Z22	X23	Y23	Z23	X24	Y24	Z24	X25	Y25	Z25	X26	Y26	Z26	X27	Y27	Z27	
0	0.0	0.39220563551909454	0.6594943676512052	0.4409222848210065	0.38346716527580205	0.8878722493358464	0.811963102462313	0.39214348071690636	1.155217326114951	1.18788410773929	0.3555998134442798	0.9971355962189553	1.2954078166154872	0.41659402600328393	0.9902315028823513	1.2825046156109183	0.35732732455951344	1.2651124146597652	1.2091835577744698	0.17034721437351946	0.6401667632914133	0.44336064800207503	0.18691028578797608	0.9188004446459648	0.810747628609266	0.18923831171231945	1.1303327646071728	1.1785976655826453	0.19344170894378115	0.943865181021444	1.2730152167921405	0.14244293448465734	0.9919507572056245	1.2690147239368383	0.19966344927696483	1.211112341478736	1.2234474146166252	0.2875325204890396	0.3885825662669245	-0.03857576243466911	0.27890080189289135	0.2529246287326697	-0.24777238091386897	0.26804722549461774	0.2481786599978481	-0.09538623748920202	0.4325299512862961	0.3993069105405697	0.040101919018608025	0.4152759135920417	0.4226546905497029	0.3074492458032121	0.3000073591556686	0.40234462529095394	0.49915664355724276	0.2007945712290191	0.47042645851448095	0.6004842931596133	0.20498940817302916	0.4710646090272693	0.627400758276296	0.23332488129575918	0.42460805364994914	0.6061590630671275	0.1209933429230594	0.42917056532949904	0.0304010568296816	0.13264270532768993	0.4321918091245416	0.28496016444672856	0.233929090200305	0.36102636347398576	0.49681331253403593	0.27028515403408193	0.3751993697565907	0.5839280288620035	0.251598018785624	0.37732420476154976	0.6193868805734669	0.22516937318913302	0.4269039744190886	0.6044445781333289
1	0.01694915254237288	0.3960554063430776	0.6475464139407315	0.44709548300350604	0.38340784507941617	0.8877102907570673	0.8117520682241107	0.3921367673828251	1.1549800198175024	1.1880249215166172	0.35548799951903093	0.9968421773141785	1.2955926222138954	0.4194041126669907	0.9730424272839409	1.2813905113518063	0.35740875452584037	1.2649312821067602	1.2093838174851224	0.17462359489977292	0.6568022773467258	0.44488329978220514	0.1822463935827457	0.9182284174422387	0.811174878062227	0.18443775517471814	1.1271751338206164	1.178402950843628	0.1926805225648569	0.9397927343655628	1.2689943707127669	0.1376515746777441	0.9911713849917408	1.2690645077557674	0.1994257259957789	1.2105044940556	1.2237512841366498	0.2836970135863764	0.38748380004653743	-0.03806872647646801	0.27888935968557854	0.2528790968931243	-0.24766115293198598	0.26806632136006586	0.24924584167978267	-0.09228964803887807	0.43264586840812436	0.39913857730135	0.040089516140931446	0.4100781932798783	0.39617822037624106	0.31103944618916723	0.30437027320795795	0.40630626972339945	0.5024580561692831	0.21580998455608133	0.4778244459587729	0.6000977542514964	0.20554612762532637	0.47532441571175027	0.6314365202990332	0.2297134755165989	0.4120837713227217	0.6084861012433005	0.12096172282390626	0.4289516011427948	0.030477971364577777	0.13263428511755176	0.43228999952454494	0.2850943018178464	0.23070938173207137	0.35114898825186497	0.4989898190637944	0.29171764052721405	0.39327090744112697	0.5771504832574187	0.2707092515492904	0.384024052263631	0.6227207191068763	0.22282533048436168	0.4435547211102004	0.6162684093027324
2	0.03389830508474576	0.3967415102902657	0.6759701158757907	0.4423970177751757	0.3834489270000554	0.887784598270714	0.8120321162331766	0.3921694776272118	1.1548403450948637	1.1879785924542092	0.35118313049128425	0.9811504139332698	1.294234512897535	0.41941608345355624	0.9727878247962554	1.2812227295765934	0.3618464049386035	1.267127197090101	1.2093808139015083	0.170218557509854	0.6719540694305972	0.44627652863743505	0.18571082986628265	0.9212352069072128	0.8146721603650279	0.18924295174892738	1.1299731204782102	1.178575897014436	0.19756076652929738	0.9423382098271238	1.2690795593903252	0.1423685671921434	0.9925251237501063	1.2689846077616767	0.19951049563629034	1.2119882253524559	1.2240228386482606	0.2837089104088232	0.3874043887601601	-0.03802295376404738	0.27889974058125694	0.2527940021497858	-0.24764484308245224	0.2681247278723909	0.24920169148532786	-0.09219518772642421	0.4325859257075398	0.3991034380005321	0.04007689950903637	0.41824272172392446	0.4094684603779847	0.3107107629721281	0.3053355607309683	0.4098849832650693	0.5091173401923893	0.21676947501370267	0.48061877364752514	0.6038501009824504	0.2095405974125314	0.47969157273518503	0.6343034158169203	0.22971548618889825	0.4559604425067318	0.6137946254748788	0.12089070846219989	0.4288541577728872	0.030514395482988572	0.12832033483486774	0.44500666819213713	0.28219622965557106	0.23127075115930432	0.35390801796733246	0.5020845393685592	0.28593398312140045	0.41657861694130643	0.5779140081258031	0.25934425619285323	0.384119904134358	0.6267587489443985	0.22323110666988585	0.4461968247339253	0.6214051516501826
3	0.05084745762711865	0.3967063162229602	0.6761673080919904	0.4425306313275527	0.38332884011624885	0.8877681424503129	0.8122188340890273	0.39218168367637873	1.1548572544410216	1.1879607629637075	0.35116189983673984	0.9810755392988881	1.2942973629624193	0.4193997315392865	0.9724405738223556	1.281199523232982	0.3618708557579906	1.2673097489641965	1.209361387675974	0.17002772326675072	0.6711955193341073	0.4426026535773315	0.18228272192058315	0.9181568747405955	0.8111646772915245	0.19018407856153652	1.1342375422565718	1.1830409521592893	0.19846894282285388	0.9460211117142077	1.2731002334942545	0.14231341857258337	0.9923855356918336	1.269048798077012	0.19948659181955966	1.210849986662167	1.2237784343380382	0.2836678737427386	0.38742107959575406	-0.03800535880181309	0.2787314413798983	0.25070016717486926	-0.2500312364454512	0.26802498497057414	0.24912434981413245	-0.09211186638582851	0.43259029577681485	0.39947336494265895	0.040002676325038976	0.4182653351900164	0.40967448762398995	0.31084526958063474	0.3055122289869616	0.41001371937327696	0.509125228081352	0.22423081739615813	0.48236300774572494	0.5995113525486598	0.2171053246388446	0.48109899312584103	0.6299118138597816	0.23254960420417678	0.44377083888638913	0.6150922345823281	0.12091423337586754	0.42869739356108894	0.03063577180171171	0.12405287062525876	0.4591880112998671	0.2826665138205669	0.22756752940540262	0.3666376232961043	0.4999793434836251	0.2912928934808793	0.4417914683508585	0.5721837290851685	0.27156827025704167	0.42474862935313407	0.6206125295446893	0.23338053370902034	0.44546564273669187	0.6124562548352716
4	0.06779661016949153	0.3973983741964191	0.6793623883307355	0.44611797008946774	0.383469775259201	0.8881967943358338	0.8125178591704327	0.3932767522820191	1.1587862309717727	1.1922864912483897	0.35108250620949066	0.9809262262401955	1.2943711319308668	0.4169148735155487	0.9871441392322634	1.2796369127704352	0.3619157472237763	1.2669547442872078	1.2093953316910466	0.17023280139089528	0.6720325304078087	0.44632484011695606	0.18647252883214216	0.9193949558678495	0.8109626634948335	0.1901177831797044	1.1345701453493284	1.1831264249960967	0.19846750818852385	0.9461986778630191	1.2730805920322703	0.14227540254054782	0.9929957274129488	1.2691496534478706	0.20026147405223363	1.215710431022338	1.2280347965674399	0.28369737875218787	0.3873496878979235	-0.03796204212481388	0.27892869169219886	0.2528061235752388	-0.2475488625588212	0.26796815903759275	0.25026205538622043	-0.08897582344006894	0.4326729305200468	0.39941276801387426	0.04004845358333151	0.41912284272261197	0.41237006464165715	0.31383637630508865	0.31036442032743583	0.4142709310610028	0.5158062058002593	0.22143143546177643	0.4855573127964081	0.6100422572125482	0.2208492344237409	0.4702242212350994	0.6352142701863308	0.24218498009088488	0.43382133827273833	0.6204493041868508	0.12083921949562575	0.4285782617245035	0.030782673265327406	0.123998582967667	0.4592227210901674	0.28289692272872236	0.22344781191672025	0.380590072527992	0.5008536756309129	0.2873750984872973	0.4573275818395566	0.5739733029670112	0.26666216222858824	0.4229757171125528	0.6211981003555811	0.2297856523253126	0.447760038493932	0.6152426482203199
5	0.0847457627118644	0.39273520922271693	0.6630811217317618	0.44519754091167585	0.38378353984004526	0.8941709269189467	0.8207793849490972	0.3932566827575596	1.158759467337653	1.192278267053378	0.35110879365826514	0.9809838892839208	1.2943118982023365	0.416974709167357	0.9873170831791804	1.279604509661038	0.36191014958834145	1.2668552868100849	1.2093640503635947	0.17031133623856748	0.6719862370832173	0.44638911025524636	0.18568272366972383	0.921614313266224	0.8146845424032723	0.19011513632311755	1.134449222119617	1.183141420704144	0.19687707192706655	0.9582103369979815	1.274192358697584	0.14224411404013843	0.9929646330458979	1.2691195728351843	0.19928732033096752	1.2118510571666736	1.2242825772601096	0.2836671706038627	0.38731418945357965	-0.03792352916993341	0.278750910488781	0.25065599035346714	-0.2500512798658255	0.2643440860514068	0.24908178071367518	-0.0883416080308392	0.4326564956486009	0.3993093597342057	0.04008923990759778	0.4232490924185237	0.42431430269285	0.31083883077533414	0.3115184736296217	0.41765865844690886	0.5227514003500637	0.21701292551846565	0.470402928766504	0.6048847462804888	0.2127788321476736	0.47878071339656963	0.6307064410159112	0.23819983359871816	0.44899480802632324	0.6254570453643342	0.12083747964526811	0.42859104224238265	0.03080806938591502	0.12343282025101969	0.46079177945257965	0.2858331714292174	0.22709304842814718	0.36829298856405285	0.5027676228164195	0.28133326237463224	0.4390219469456018	0.5730756692292284	0.2539294779820431	0.44474280896065355	0.617787363785225	0.24138894163405625	0.45939830214216415	0.6099457795084472
6	0.1016949152542373	0.39239868179942355	0.6647235946150494	0.44855366476665787	0.38273697481759233	0.8906011726683882	0.8170942197056801	0.3932694808661729	1.1587254815302162	1.1922830756830516	0.35104369289212023	0.9809417274415406	1.2943978598297199	0.4160288922789368	0.9893884703771023	1.2830456020811032	0.36199388271916133	1.2670047711223964	1.209314906938476	0.1699836534720313	0.6881151498301384	0.4434491776513182	0.18555364127619411	0.9215903052818905	0.8147249757335496	0.19014153183777457	1.1344076046322842	1.1830971795709	0.19672522325280964	0.9585224391556455	1.2742325266220316	0.1376163683828012	1.0101459608488017	1.2707753502979575	0.19989146758561407	1.2106445192381254	1.2233693950715834	0.2875240700270516	0.388351048795538	-0.03842211186998424	0.27891618135823415	0.25272572053168196	-0.24756250247189424	0.2644774021723996	0.2401902364122544	-0.08469982306002509	0.43270328576217415	0.39927739075039376	0.040185845598265504	0.43483264951532796	0.423421257618848	0.3107767669456949	0.3114765250196314	0.41710388364618745	0.5194405252205335	0.21992846940652092	0.47919826501119894	0.5997613077929256	0.21641053549565306	0.48068214657761654	0.6303193995663434	0.23333668806331945	0.43517344747958053	0.6231357630218535	0.11778461310851046	0.41754605041159637	0.03468328168727613	0.1186406022587999	0.4743748236161139	0.28267514151564577	0.22287814412138382	0.3781646813413465	0.497888763771405	0.2816061470149527	0.42728279594382196	0.5745836958034177	0.26478942190273297	0.4454177289659537	0.6135128916771688	0.24691286792710837	0.4563389995876055	0.601830938712227
